# xmcd
#
# Track frame offsets: 
#        150
#        17565
#        40367
#        61217
#        79976
#        97773
#        120502
#        140149
#        156013
#        178425
#        196782
#        216034
#        239026
#        259113
#        280816
#        305054
#
# Disc length: 4344 seconds
#
# Revision: 2
# Processed by: cddbd v1.5.1PL0 Copyright (c) Steve Scherf et al.
# Submitted via: ExactAudioCopy v0.95a5
#
DISCID=e610f610
DTITLE=许美静 - 空气中的迷 - 1
DYEAR=2001
DGENRE=Pop
TTITLE0=空气中的迷
TTITLE1=当阳光变冷
TTITLE2=多事之秋
TTITLE3=Falling
TTITLE4=眼睛
TTITLE5=都是夜归人
TTITLE6=如此
TTITLE7=别走
TTITLE8=放你在心里
TTITLE9=只是这人生
TTITLE10=挥别
TTITLE11=阳光总在风雨后
TTITLE12=迫在眉梢
TTITLE13=铁窗
TTITLE14=城里的月光
TTITLE15=快乐无罪
EXTD=
EXTT0=
EXTT1=
EXTT2=
EXTT3=
EXTT4=
EXTT5=
EXTT6=
EXTT7=
EXTT8=
EXTT9=
EXTT10=
EXTT11=
EXTT12=
EXTT13=
EXTT14=
EXTT15=
PLAYORDER=
